<?xml version="1.0" encoding="UTF-8"?>
<svg id="_Слой_1" data-name="Слой_1" xmlns="http://www.w3.org/2000/svg" version="1.1" viewBox="0 0 614.1 614.1">
  <!-- Generator: Adobe Illustrator 29.2.1, SVG Export Plug-In . SVG Version: 2.1.0 Build 116)  -->
  <defs>
    <style>
      .st0 {
        fill: #fff;
      }

      .st1 {
        fill: #013562;
      }
    </style>
  </defs>
  <g>
    <path class="st1" d="M408.4,200.8c.3.7.7,1.4,1,2.1.2.5.5,1,.8,1.5.2.5.5,1,.8,1.5,0,0,0,0,0,0,.6,1.2,1.2,2.3,1.9,3.5.1.2.2.4.3.6.3.5.6,1,.8,1.5,1.2,2.1,2.3,4.1,3.3,5.7-1.5-2.6-5.8-10.2-8.9-16.4Z"/>
    <path class="st0" d="M408.4,200.8c.3.7.7,1.4,1,2.1.2.5.5,1,.8,1.5.2.5.5,1,.8,1.5,0,0,0,0,0,0,.6,1.2,1.2,2.3,1.9,3.5.1.2.2.4.3.6.3.5.6,1,.8,1.5,1.2,2.1,2.3,4.1,3.3,5.7-1.5-2.6-5.8-10.2-8.9-16.4Z"/>
  </g>
  <g>
    <path class="st1" d="M196.8,217.1c1-1.7,2.2-3.7,3.3-5.7.3-.5.5-1,.8-1.5.1-.2.2-.4.4-.6.6-1.2,1.3-2.3,1.9-3.5,0,0,0,0,0,0,.3-.5.5-1,.8-1.5.3-.5.5-1,.8-1.5.4-.7.7-1.4,1-2.1-3.1,6.1-7.4,13.7-8.9,16.4Z"/>
    <path class="st1" d="M614.1,26.5c-1.2-14.1-12.4-25.3-26.5-26.5h-280.5c0,.1-280.5,0-280.5,0C12.4,1.2,1.2,12.4,0,26.5v559.1c.7,14.9,12.7,27.2,27.5,28.5h559.1c14.8-1.3,26.8-13.6,27.5-28.5V26.5ZM405.1,193.1c0,0,0,.2,0,.3,0,.2.1.4.2.6.2.5.4,1.1.7,1.8,0,.1.1.3.2.4,0,0,0,0,0,0,0,.1.1.3.2.4.2.5.5,1,.7,1.6.2.4.4.9.6,1.3.1.3.3.6.4.9,0,.1.1.3.2.4,3.1,6.1,7.4,13.7,8.9,16.4,0,0,0,.2.2.2,0,0,.1.2.2.3,0,0,0,.1.1.2,1.3,2.1,2.3,3.6,2.8,4.1.4.4,2.4,1.7,3.7,2.5.5.3.9.5,1.1.6,0,0,0,0,0,0,0,0,0,0,0,0h63.5c-1.3,3.5-4,7.3-6.2,10.3-25.2,34.3-77.1,39.2-107.7,9.1-5.8-5.7-14.4-21.4-23.6-21.4h-14.5v209.5c0,.7,7.3,8.1,8.8,11.2,15.4,29.8-5.9,64.4-38.8,64.4-32.9,0-54.2-34.6-38.8-64.4,1.6-3,8.8-10.5,8.8-11.2v-209.5h-14.5c-9.2,0-17.9,15.8-23.6,21.4-30.6,30.1-82.5,25.3-107.7-9.1-2.2-3-4.9-6.8-6.2-10.3h63.5s0,0,0,0c0,0,0,0,0,0,.2,0,.6-.3,1.1-.6,1.3-.8,3.3-2,3.7-2.5.6-.5,1.6-2,2.8-4.1,0,0,0-.1.1-.2,0,0,.1-.2.2-.3,0,0,0-.2.1-.2,1.5-2.6,5.8-10.2,8.9-16.4,0-.1.1-.3.2-.4.1-.3.3-.6.4-.9.2-.4.4-.9.6-1.3.3-.5.5-1.1.7-1.6,0-.1.1-.3.2-.4,0,0,0,0,0,0,0-.1.1-.3.2-.4.3-.7.5-1.3.7-1.8,0-.2.1-.4.2-.6,0,0,0-.2,0-.3,0-.2,0-.4,0-.5.2-4-9.8-21.3-12.7-25.4-1.3-1.9-5.7-8.1-7.9-8.1h-63.5c20.9-42.8,78.9-53.7,113.5-20,11.2,10.8,10.8,20.9,30.1,22.9,6.7.7,22.3,1.2,38.4,1.2,16.1,0,31.7-.5,38.4-1.2,19.2-2,18.9-12.1,30.1-22.9,34.7-33.7,92.6-22.7,113.5,20h-63.5c-2.2,0-6.6,6.2-7.9,8.1-2.8,4.1-12.8,21.4-12.7,25.4,0,.2,0,.3,0,.5Z"/>
    <path class="st0" d="M196.8,217.1c1-1.7,2.2-3.7,3.3-5.7.3-.5.5-1,.8-1.5.1-.2.2-.4.4-.6.6-1.2,1.3-2.3,1.9-3.5,0,0,0,0,0,0,.3-.5.5-1,.8-1.5.3-.5.5-1,.8-1.5.4-.7.7-1.4,1-2.1-3.1,6.1-7.4,13.7-8.9,16.4Z"/>
    <path class="st0" d="M425.5,225s0,0,0,0c-.2,0-.6-.2-1.1-.6-1.3-.8-3.3-2-3.7-2.5-.6-.5-1.6-2-2.8-4.1,0,0,0-.1-.1-.2,0,0,0-.2-.2-.3,0,0-.1-.2-.2-.2-1-1.7-2.2-3.7-3.3-5.7-.3-.5-.5-1-.8-1.5-.1-.2-.2-.4-.3-.6-.6-1.2-1.3-2.3-1.9-3.5,0,0,0,0,0,0-.3-.5-.5-1-.8-1.5-.3-.5-.5-1-.8-1.5-.3-.7-.7-1.4-1-2.1,0-.1-.1-.3-.2-.4-.1-.3-.3-.6-.4-.9-.2-.4-.4-.9-.6-1.3-.3-.5-.5-1.1-.7-1.6,0-.1-.1-.3-.2-.4,0,0,0,0,0,0,0-.1-.1-.3-.2-.4-.3-.7-.5-1.3-.7-1.8,0-.2-.1-.4-.2-.6,0,0,0-.2,0-.3,0-.2,0-.4,0-.5-.2-4,9.8-21.3,12.7-25.4,1.3-1.9,5.7-8.1,7.9-8.1h63.5c-20.9-42.8-78.9-53.7-113.5-20-11.2,10.8-10.8,20.9-30.1,22.9-6.7.7-22.3,1.2-38.4,1.2-16.1,0-31.7-.5-38.4-1.2-19.2-2-18.9-12.1-30.1-22.9-34.7-33.7-92.6-22.7-113.5,20h63.5c2.2,0,6.6,6.2,7.9,8.1,2.8,4.1,12.8,21.4,12.7,25.4,0,.2,0,.3,0,.5,0,0,0,.2,0,.3,0,.2-.1.4-.2.6-.2.5-.4,1.1-.7,1.8,0,.1-.1.3-.2.4,0,0,0,0,0,0,0,.1-.1.3-.2.4-.2.5-.5,1-.7,1.6-.2.4-.4.9-.6,1.3-.1.3-.3.6-.4.9,0,.1-.1.3-.2.4-.3.7-.7,1.4-1,2.1-.2.5-.5,1-.8,1.5-.2.5-.5,1-.8,1.5,0,0,0,0,0,0-.6,1.2-1.2,2.3-1.9,3.5-.1.2-.2.4-.4.6-.3.5-.5,1-.8,1.5-1.2,2.1-2.3,4.1-3.3,5.7,0,0,0,.2-.1.2,0,0-.1.2-.2.3,0,0,0,.1-.1.2-1.3,2.1-2.3,3.6-2.8,4.1-.4.4-2.4,1.7-3.7,2.5-.5.3-.8.6-1.1.6,0,0,0,0,0,0,0,0,0,0,0,0h-63.5c1.3,3.5,4,7.3,6.2,10.3,25.2,34.3,77.1,39.2,107.7,9.1,5.8-5.7,14.4-21.4,23.6-21.4h14.5v209.5c0,.7-7.3,8.1-8.8,11.2-15.4,29.8,5.9,64.4,38.8,64.4,32.9,0,54.2-34.6,38.8-64.4-1.6-3-8.8-10.5-8.8-11.2v-209.5h14.5c9.2,0,17.9,15.8,23.6,21.4,30.6,30.1,82.5,25.3,107.7-9.1,2.2-3,4.9-6.8,6.2-10.3h-63.5s0,0,0,0ZM310.4,494.9c-1.2.1-2.3.2-3.4.2-1.1,0-2.2,0-3.4-.2-37.9-3.9-34-61.5,3.4-61,37.4-.5,41.3,57.1,3.4,61ZM353.1,199h-40v222h-6s-6,0-6,0v-222h-40v-13h92v13Z"/>
    <path class="st1" d="M307,433.9c-37.4-.5-41.3,57.1-3.4,61,1.2.1,2.3.2,3.4.2,1.1,0,2.2,0,3.4-.2,37.9-3.9,34-61.5-3.4-61ZM314.6,470.1c-2.3,3-5,4.2-7.6,4-2.6.1-5.3-1-7.6-4-5.4-7.2.7-15.4,7.6-15.5,6.8.2,13,8.3,7.6,15.5Z"/>
    <path class="st0" d="M314.6,470.1c-2.3,3-5,4.2-7.6,4-2.6.1-5.3-1-7.6-4-5.4-7.2.7-15.4,7.6-15.5,6.8.2,13,8.3,7.6,15.5Z"/>
    <polygon class="st1" points="353.1 186 353.1 199 313 199 313 421 307 421 301 421 301 199 261 199 261 186 353.1 186"/>
  </g>
</svg>